<?xml version="1.0" encoding="UTF-8" standalone="no"?>
<svg
   xmlns:svg="http://www.w3.org/2000/svg"
   xmlns="http://www.w3.org/2000/svg"
   version="1.1"
   id="svg2"
   width="566.50665"
   height="170.72"
   viewBox="0 0 566.50665 170.72"
   ><g
     id="g10"
     transform="matrix(1.3333333,0,0,-1.3333333,0,170.72)"><g
       id="g12"
       transform="scale(0.1)"><path
         d="M 985.496,910.355 C 947.953,892.926 899.688,887.563 856.777,887.563 h -38.882 l 37.543,213.187 h 52.292 c 32.176,0 67.04,-4.02 93.85,-16.09 26.82,-13.41 46.94,-34.86 46.94,-71.06 0,-54.971 -25.48,-85.811 -63.024,-103.245 z m 225.254,-84.472 c 44.25,46.93 68.38,107.265 68.38,186.377 0,103.24 -44.25,170.28 -109.95,211.85 -65.69,41.56 -154.18,56.31 -242.676,56.31 H 685.152 666.387 30.8398 L 0,1100.75 H 217.207 L 84.4688,341.855 H 304.359 L 437.102,1100.75 H 635.074 L 502.809,341.855 h 219.89 l 64.356,366.04 h 14.754 l 197.097,-366.04 h 245.364 l -210.51,384.809 c 72.41,21.457 134.09,53.633 176.99,99.219"
         style="fill:#ffffff;fill-opacity:1;fill-rule:nonzero;stroke:none"
         id="path14" /><path
         d="m 2351.79,1280.42 -83.57,-481.068 75.15,-196.407 0.17,-14.871 -101.41,180.055 -288.57,512.291 H 1777.92 L 1614.35,341.855 h 219.88 l 95.2,544.368 304.37,-544.368 h 174.3 l 163.58,938.565 h -219.89"
         style="fill:#ffffff;fill-opacity:1;fill-rule:nonzero;stroke:none"
         id="path16" /><path
         d="M 3992.66,1280.42 3782.15,982.758 h -2.69 l -107.25,297.662 h -87.07 -155.63 -527.99 -25.46 -194.42 L 2518.06,341.855 h 219.89 l 132.26,758.895 h 223.06 L 2960.54,341.855 h 219.88 l 132.74,758.895 h 185.74 l 133.07,-344.59 -72.4,-414.305 h 219.89 l 69.73,398.219 399.56,540.346 h -256.09"
         style="fill:#ffffff;fill-opacity:1;fill-rule:nonzero;stroke:none"
         id="path18" /><path
         d="M 1448.07,1280.42 1284.5,341.855 h 219.88 l 163.58,938.565 h -219.89"
         style="fill:#ffffff;fill-opacity:1;fill-rule:nonzero;stroke:none"
         id="path20" /><path
         d="m 137.457,160.879 h 16.512 c 24.957,0 43.394,8.84 43.394,29.582 0,18.809 -14.593,31.48 -36.093,31.48 H 137.457 Z M 75.25,273.391 h 87.559 c 44.148,0 100.597,-22.653 100.597,-81.782 0,-40.32 -26.492,-63.359 -55.668,-74.879 C 231.531,83.7109 270.703,29.1797 288.746,4.60938 H 211.184 L 140.152,109.441 h -2.695 V 4.60938 H 75.25 V 273.391"
         style="fill:#ffffff;fill-opacity:1;fill-rule:nonzero;stroke:none"
         id="path22" /><path
         d="m 410.016,101.371 h 53.761 l -25.73,77.559 h -0.379 z M 496.418,4.60938 480.66,51.8398 H 391.977 L 375.078,4.60938 H 306.34 L 418.074,273.391 h 49.547 L 567.836,4.60938 h -71.418"
         style="fill:#ffffff;fill-opacity:1;fill-rule:nonzero;stroke:none"
         id="path24" /><path
         d="m 780.891,201.59 c -16.141,13.441 -35.332,22.648 -56.453,22.648 -44.543,0 -76.801,-38.008 -76.801,-85.238 0,-49.5312 27.258,-85.2383 76.406,-85.2383 20.355,0 41.09,8.8281 56.449,23.418 L 815.82,32.6406 C 788.168,11.1406 755.918,0 721.363,0 640.344,0 581.594,57.9805 581.594,139 c 0,78.332 63.742,139 142.449,139 32.652,0 58.367,-10.371 86.781,-28.41 l -29.933,-48"
         style="fill:#ffffff;fill-opacity:1;fill-rule:nonzero;stroke:none"
         id="path26" /><path
         d="M 850.691,4.60938 V 273.391 h 62.207 V 4.60938 h -62.207"
         style="fill:#ffffff;fill-opacity:1;fill-rule:nonzero;stroke:none"
         id="path28" /><path
         d="M 1143.24,4.60938 1029.58,160.5 V 4.60938 H 967.379 V 273.391 h 54.911 L 1137.1,116.73 v 156.661 h 62.21 V 4.60938 h -56.07"
         style="fill:#ffffff;fill-opacity:1;fill-rule:nonzero;stroke:none"
         id="path30" /><path
         d="m 1381.25,110.59 v 51.461 h 125.17 V 56.0586 C 1477.25,16.5117 1433.85,0 1386.63,0 c -81.03,0 -142.85,56.832 -142.85,139 0,78.332 63.74,139 142.47,139 47.21,0 85.62,-18.82 116.71,-54.91 l -43.01,-37.629 c -18.42,22.269 -42.99,38.777 -73.32,38.777 -44.55,0 -76.81,-38.008 -76.81,-85.238 0,-49.5312 29.57,-85.2383 76.43,-85.2383 19.57,0 41.85,8.4492 57.96,23.7969 V 110.59 h -62.96"
         style="fill:#ffffff;fill-opacity:1;fill-rule:nonzero;stroke:none"
         id="path32" /></g></g></svg>
