<?xml version="1.0" encoding="utf-8"?>
<!-- Generator: Adobe Illustrator 24.0.1, SVG Export Plug-In . SVG Version: 6.00 Build 0)  -->
<svg version="1.1" id="Layer_1" xmlns="http://www.w3.org/2000/svg" xmlns:xlink="http://www.w3.org/1999/xlink" x="0px" y="0px"
	 viewBox="0 0 477.89 190.53" style="enable-background:new 0 0 477.89 190.53;" xml:space="preserve">
<style type="text/css">
	.st0{fill:#ffffff;}
</style>
<g>
	<path class="st0" d="M148.69,78.22c4.42-4.69,6.84-10.73,6.84-18.64c0-10.32-4.42-17.03-10.99-21.18
		c-6.57-4.16-15.42-5.63-24.27-5.63H96.13h-1.88H30.7l-3.08,17.97h21.72l-13.27,75.89h21.99l13.27-75.89h19.8L77.9,126.62h21.99
		l6.44-36.6h1.48l19.71,36.6h24.54l-21.05-38.48C138.23,86,144.4,82.78,148.69,78.22z M126.16,69.77
		c-3.75,1.74-8.58,2.28-12.87,2.28h-3.89l3.75-21.32h5.23c3.22,0,6.7,0.4,9.39,1.61c2.68,1.34,4.69,3.49,4.69,7.11
		C132.47,64.95,129.92,68.03,126.16,69.77z"/>
	<polygon class="st0" points="262.79,32.77 254.44,80.88 261.95,100.52 261.97,102 251.83,84 222.97,32.77 205.41,32.77 
		189.05,126.62 211.04,126.62 220.56,72.19 250.99,126.62 268.42,126.62 284.78,32.77 	"/>
	<polygon class="st0" points="426.88,32.77 405.83,62.53 405.56,62.53 394.84,32.77 386.13,32.77 370.57,32.77 317.77,32.77 
		315.22,32.77 295.78,32.77 279.42,126.62 301.41,126.62 314.64,50.74 336.94,50.74 323.67,126.62 345.66,126.62 358.93,50.74 
		377.51,50.74 390.81,85.19 383.57,126.62 405.56,126.62 412.53,86.8 452.49,32.77 	"/>
	<polygon class="st0" points="172.42,32.77 156.06,126.62 178.05,126.62 194.41,32.77 	"/>
</g>
<g>
	<path class="st0" d="M54.49,141.28c-1.6-1.33-3.5-2.25-5.59-2.25c-4.41,0-7.61,3.77-7.61,8.45c0,4.91,2.7,8.45,7.57,8.45
		c2.02,0,4.07-0.88,5.59-2.32l3.5,4.41c-2.74,2.13-5.94,3.23-9.36,3.23c-8.03,0-13.85-5.75-13.85-13.78
		c0-7.76,6.32-13.78,14.12-13.78c3.23,0,5.78,1.03,8.6,2.82L54.49,141.28z"/>
	<path class="st0" d="M67.85,160.8v-11.07l-8.41-15.56h7.57l4.15,8.98h0.08l4.64-8.98h7.15l-9.02,15.79v10.85H67.85z"/>
	<path class="st0" d="M103.5,141.28c-1.6-1.33-3.5-2.25-5.59-2.25c-4.41,0-7.61,3.77-7.61,8.45c0,4.91,2.7,8.45,7.57,8.45
		c2.02,0,4.07-0.88,5.59-2.32l3.5,4.41c-2.74,2.13-5.94,3.23-9.36,3.23c-8.03,0-13.85-5.75-13.85-13.78
		c0-7.76,6.32-13.78,14.12-13.78c3.23,0,5.78,1.03,8.6,2.82L103.5,141.28z"/>
	<path class="st0" d="M110.42,160.8v-26.64h6.16v21.54h10.66v5.1H110.42z"/>
	<path class="st0" d="M130.1,160.8v-26.64h6.16v26.64H130.1z"/>
	<path class="st0" d="M159.09,160.8l-11.26-15.45v15.45h-6.16v-26.64h5.44l11.38,15.53v-15.53h6.17v26.64H159.09z"/>
	<path class="st0" d="M182.68,150.3v-5.1h12.41v10.5c-2.89,3.92-7.19,5.56-11.87,5.56c-8.03,0-14.16-5.63-14.16-13.78
		c0-7.76,6.32-13.78,14.12-13.78c4.68,0,8.49,1.86,11.57,5.44l-4.26,3.73c-1.83-2.21-4.26-3.84-7.27-3.84
		c-4.41,0-7.61,3.77-7.61,8.45c0,4.91,2.93,8.45,7.57,8.45c1.94,0,4.15-0.84,5.75-2.36v-3.27H182.68z"/>
</g>
</svg>
