<?xml version="1.0" encoding="utf-8"?>
<!-- Generator: Adobe Illustrator 24.0.1, SVG Export Plug-In . SVG Version: 6.00 Build 0)  -->
<svg version="1.1" id="Layer_1" xmlns="http://www.w3.org/2000/svg" xmlns:xlink="http://www.w3.org/1999/xlink" x="0px" y="0px"
	 viewBox="0 0 1600 800" style="enable-background:new 0 0 1600 800;" xml:space="preserve">
<style type="text/css">
	.st0{clip-path:url(#SVGID_2_);}
	.st1{fill:none;}
	.st2{fill:#5091CD;}
	.st3{fill:#3B73B9;}
	.st4{fill:#004B8D;}
	.st5{fill:#002D62;}
</style>
<g>
	<defs>
		<rect id="SVGID_1_" width="1601" height="804"/>
	</defs>
	<clipPath id="SVGID_2_">
		<use xlink:href="#SVGID_1_"  style="overflow:visible;"/>
	</clipPath>
	<g class="st0">
		<rect x="-0.03" y="-43" class="st1" width="1601.41" height="1601.41"/>
		<polygon class="st2" points="1601.38,501.99 938.47,262.19 831.34,352.09 -0.03,50.43 -0.03,178.46 -0.03,1558.41 
			1601.38,1558.41 		"/>
		<polygon class="st3" points="-0.03,962.71 658,418.25 765.22,328.11 962.76,400.01 1069.88,310.11 1601.38,501.99 
			1601.38,1558.41 -0.03,1558.41 		"/>
		<polygon class="st4" points="-0.03,178.46 921.33,513.81 1028.46,423.92 1601.38,630.75 1601.38,1558.41 -0.03,1558.41 		"/>
		<polygon class="st5" points="-0.03,307.63 879.4,627.72 986.53,537.83 1601.38,759.8 1601.38,1558.41 -0.03,1558.41 		"/>
	</g>
</g>
</svg>
